<svg fill="#b5d829" width="52" height="52" viewBox="0 0 64 64" xmlns="http://www.w3.org/2000/svg">
<path d="M21.4016 56.7998C14.7016 56.7998 8.20156 54.8998 2.80156 51.1998C1.90156 50.5998 1.60156 49.4998 1.90156 48.4998C2.30156 47.4998 3.30156 46.8998 4.30156 47.0998C5.10156 47.1998 5.90156 47.2998 6.70156 47.2998C9.60156 47.2998 12.4016 46.6998 15.0016 45.5998C11.8016 43.9998 9.20156 41.1998 8.10156 37.5998C7.90156 36.8998 8.00156 36.1998 8.40156 35.5998C5.60156 32.9998 4.00156 29.3998 4.00156 25.4998V25.3998C4.00156 24.5998 4.40156 23.8998 5.10156 23.4998C5.20156 23.3998 5.30156 23.3998 5.40156 23.2998C4.50156 21.4998 4.00156 19.3998 4.00156 17.3998C4.00156 14.8998 4.60156 12.5998 5.80156 10.5998C6.20156 9.9998 6.80156 9.5998 7.60156 9.4998C8.30156 9.3998 9.10156 9.7998 9.50156 10.2998C14.3016 16.1998 21.2016 19.9998 28.6016 20.9998V20.8998C28.6016 13.3998 34.7016 7.2998 42.2016 7.2998C45.5016 7.2998 48.6016 8.4998 51.1016 10.6998C52.2016 10.2998 53.4016 9.4998 54.6016 8.7998C55.2016 8.3998 55.8016 7.9998 56.4016 7.6998C57.1016 7.2998 58.0016 7.2998 58.8016 7.7998C59.6016 8.2998 59.9016 9.0998 59.8016 9.8998C59.7016 10.4998 59.5016 11.8998 59.1016 13.3998C59.3016 13.3998 59.4016 13.3998 59.5016 13.3998C60.4016 13.1998 61.3016 13.5998 61.8016 14.3998C62.3016 15.1998 62.3016 16.0998 61.8016 16.8998C60.4016 18.9998 58.3016 20.3998 56.4016 21.6998C56.2016 21.7998 56.0016 21.9998 55.9016 22.0998C55.9016 22.1998 55.9016 22.2998 55.9016 22.3998C56.0016 39.1998 43.0016 56.7998 21.4016 56.7998ZM12.8016 50.9998C15.5016 51.7998 18.4016 52.1998 21.4016 52.1998C40.2016 52.1998 51.5016 36.8998 51.5016 22.0998C51.5016 21.6998 51.5016 21.2998 51.5016 20.8998C51.4016 20.0998 51.7016 19.2998 52.4016 18.7998C52.9016 18.3998 53.5016 17.9998 54.0016 17.5998C54.3016 17.3998 54.6016 17.1998 54.9016 16.9998C54.4016 16.7998 54.0016 16.2998 53.8016 15.7998C53.6016 15.2998 53.6016 14.6998 53.8016 14.1998C52.9016 14.5998 52.0016 14.8998 51.1016 15.0998C50.4016 15.1998 49.6016 14.9998 49.1016 14.3998C47.3016 12.4998 45.0016 11.4998 42.5016 11.4998C37.5016 11.4998 33.4016 15.5998 33.4016 20.5998C33.4016 21.1998 33.5016 21.8998 33.6016 22.6998C33.7016 23.3998 33.6016 24.0998 33.1016 24.5998C32.6016 25.0998 32.0016 25.3998 31.3016 25.3998C22.8016 24.9998 14.8016 21.4998 8.80156 15.5998C8.70156 16.0998 8.70156 16.5998 8.70156 17.0998C8.70156 20.1998 10.2016 22.9998 12.8016 24.6998C13.6016 25.2998 14.0016 26.2998 13.7016 27.2998C13.4016 28.2998 12.5016 28.8998 11.5016 28.8998C10.8016 28.8998 10.0016 28.7998 9.30156 28.5998C10.4016 31.3998 12.9016 33.5998 16.0016 34.1998C17.0016 34.3998 17.8016 35.2998 17.8016 36.3998C17.8016 37.4998 17.1016 38.3998 16.1016 38.5998C15.5016 38.7998 14.8016 38.8998 14.3016 38.9998C16.0016 40.9998 18.4016 42.1998 21.1016 42.1998C22.1016 42.1998 22.9016 42.7998 23.2016 43.6998C23.5016 44.5998 23.2016 45.5998 22.4016 46.1998C19.3016 48.5998 16.2016 50.1998 12.8016 50.9998Z"/>
</svg>
